<svg width="200" height="50" xmlns="http://www.w3.org/2000/svg" class="iconLeft">
 <!---->

 <!---->
 <!---->
 <!---->
 <!---->
 <g>
  <title>Layer 1</title>
  <g transform="matrix(2.21818 0 0 2.10961 75.0956 2.63739)" fill="black" id="e81c616f-3e6a-43fa-9b56-ce2a0fed3750">
   <path id="svg_1" d="m-9.51416,9.50189l0,0l0,0q0,-0.42 -0.3,-0.42l0,0l0,0q-0.11,0 -0.26,0.06l0,0l0,0q-0.16,0.06 -0.3,0.1l0,0l0,0q-0.52,0.28 -0.8,0.61l0,0l0,0q-0.29,0.33 -0.58,0.73l0,0l0,0q-0.3,0.41 -0.51,0.87l0,0l0,0q-0.21,0.46 -0.32,0.87l0,0l0,0q-0.41,1.5 0.31,2.01l0,0l0,0q0.29,0.21 0.62,0.21l0,0l0,0q0.33,-0.01 0.53,-0.14l0,0l0,0q0.21,-0.12 0.4,-0.23l0,0l0,0q0.2,-0.12 0.46,-0.17l0,0l0,0q0.26,-0.04 0.64,0.07l0,0l0,0q0.39,0.12 0.41,0.32l0,0l0,0q0.03,0.2 0,0.41l0,0l0,0q-0.02,0.21 0,0.37l0,0l0,0q0.02,0.17 0.3,0.21l0,0l0,0q0.26,0.34 -0.34,0.82l0,0l0,0q-0.15,0.12 -0.29,0.23l0,0l0,0q-1.21,0.77 -2.56,0.86l0,0l0,0q-0.86,0.05 -1.82,-0.31l0,0l0,0q-1.45,-0.55 -1.63,-2.45l0,0l0,0q-0.24,-1.76 0.45,-3.65l0,0l0,0q0.57,-1.6 1.74,-2.96l0,0l0,0q1.05,-1.24 2.07,-1.62l0,0l0,0q1.22,-0.63 2.63,-0.49l0,0l0,0q1.5,0.19 1.96,1.27l0,0l0,0q0.46,1.08 -0.15,2.59l0,0l0,0q-0.21,0.53 -0.8,0.84l0,0l0,0q-0.51,0.28 -1.09,0.28l0,0l0,0q-0.59,0 -0.76,-0.37l0,0l0,0q-0.17,-0.37 -0.01,-0.92zm8.14,0.97l0,0l0.06,0.01l0,0q0.03,0 0.03,0.02l0,0l0,0q0.36,-0.14 0.6,0.21l0,0l0,0q0.15,0.24 0.24,0.73l0,0l0,0q0.03,0.67 -0.14,1.86l0,0l0,0q-0.32,2.41 -0.35,2.87l0,0l0,0q0.03,0.49 -0.6,0.67l0,0l0,0q-0.55,0.17 -1.1,-0.01l0,0l0,0q-0.57,-0.2 -0.47,-0.61l0,0l0,0q-0.11,0.21 -0.23,0.3l0,0l0,0q-0.11,0.1 -0.44,0.26l0,0l0,0q-0.33,0.16 -0.93,0.26l0,0l0,0q-0.6,0.11 -1.2,0.06l0,0l0,0q-0.6,-0.05 -1.1,-0.29l0,0l0,0q-0.5,-0.25 -0.67,-0.77l0,0l0,0q-0.32,-1.01 0.09,-2.56l0,0l0,0q0.28,-1.02 1.01,-1.81l0,0l0,0q0.84,-0.89 1.9,-1.48l0,0l0,0q0.8,-0.43 1.54,-0.52l0,0l0,0q0.25,-0.03 0.44,0.02l0,0l0,0q0.19,0.04 0.41,0.08l0,0l0,0q0.21,0.04 0.41,0.13l0,0l0,0q0.5,0.21 0.5,0.57zm-2.59,3.71l0,0l0,0q0.1,-0.2 0.17,-0.49l0,0l0,0q0.06,-0.29 0.17,-0.64l0,0l0,0q-1.13,0.46 -1.74,1.13l0,0l0,0q-0.65,0.74 0.09,1.02l0,0l0,0q0.64,0.17 0.94,-0.21l0,0l0,0q0.12,-0.17 0.22,-0.42l0,0l0,0q0.1,-0.25 0.24,-0.52l0,0l0,0q-0.04,0.07 -0.09,0.13zm6.79,-3.5l0.27,0.07l0,0q0.7,-1.05 1.95,-1.26l0,0l0,0q0.4,-0.07 1,-0.1l0,0l0,0q0.59,-0.03 1.02,0.27l0,0l0,0q0.43,0.29 0.64,0.75l0,0l0,0q0.36,0.83 0.11,2.03l0,0l0,0q-0.14,0.66 -0.34,1.45l0,0l0,0q-0.19,0.79 -0.59,1.56l0,0l0,0q-0.39,0.77 -1.02,1.45l0,0l0,0q-0.63,0.67 -1.64,1.06l0,0l0,0q-0.6,0.24 -1.05,0.17l0,0l0,0q-0.46,-0.06 -0.68,-0.18l0,0l0,0q-0.23,-0.13 -0.31,-0.37l0,0l0,0q-0.28,0.8 -0.53,1.62l0,0l0,0q-0.24,0.82 -0.65,1.56l0,0l0,0q-0.28,0.18 -0.68,0.27l0,0l0,0q-0.41,0.09 -0.8,-0.04l0,0l0,0q-0.39,-0.13 -0.57,-0.47l0,0l0,0q-0.17,-0.35 -0.17,-0.75l0,0l0,0q0,-0.55 0.26,-1.33l0,0l0,0q0.4,-1.17 0.64,-1.8l0,0l0,0q0.25,-0.63 0.32,-0.82l0,0l0,0q0.07,-0.18 0.14,-0.39l0,0l0,0q0.3,-0.82 0.45,-1.33l0,0l0,0q0.15,-0.51 0.27,-0.89l0,0l0,-0.01l0,0q0.14,-0.62 0.44,-1.31l0,0l0,0q0.31,-0.69 0.42,-0.85l0,0l0,0q0.24,-0.23 0.49,-0.29l0,0l0,0q0.25,-0.06 0.57,-0.07l0,0l0.04,0zm1.33,2.41l0,0l0,0q-0.16,0.29 -0.56,0.54l0,0l-0.12,0.3l0,0q-0.14,0.36 -0.27,0.74l0,0l0,0q-0.12,0.38 -0.28,0.74l0,0l0,0q0.14,0.14 0.21,0.27l0,0l0,0q0.79,-0.69 1.43,-1.81l0,0l0,0q0.25,-0.46 0.33,-0.92l0,0l0,0q0.08,-0.46 0.03,-0.59l0,0l0,0q-0.04,-0.13 -0.13,-0.13l0,0l0,0q-0.09,0 -0.18,0.05l0,0l0,0q-0.09,0.05 -0.14,0.1l0,0l0,0q-0.05,0.05 0.01,0.01l0,0l0,0q-0.16,0.18 -0.23,0.31l0,0l0,0q-0.07,0.14 -0.1,0.39zm4.31,-0.9l0,0l0,0q0.01,-0.57 -0.09,-0.94l0,0l0,0q-0.1,-0.36 0,-0.6l0,0l0,0q0.11,-0.25 0.34,-0.35l0,0l0,0q0.23,-0.1 0.55,-0.06l0,0l0,0q0.31,0.03 0.62,0.19l0,0l0,0q0.74,0.33 1.04,0.95l0,0l0,0q0.07,0.31 -0.05,0.76l0,0l0,0q-0.12,0.46 -0.28,0.94l0,0l0,0q-0.15,0.48 -0.29,0.94l0,0l0,0q-0.14,0.45 -0.11,0.76l0,0l0,0q0.36,-0.22 0.63,-0.67l0,0l0,0q0.28,-0.45 0.51,-0.96l0,0l0,0q0.23,-0.51 0.43,-1.01l0,0l0,0q0.21,-0.51 0.39,-0.8l0,0l0,0q0.19,-0.3 0.31,-0.47l0,0l0,0q0.11,-0.18 0.22,-0.32l0,0l0,0q0.18,-0.23 0.48,-0.46l0,0l0,0q0.08,-0.07 0.51,0.02l0,0l0,0q0.42,0.09 0.63,0.13l0,0l0,0q0.2,0.03 0.27,-0.02l0,0l0.2,-0.14l0,0q0.39,-0.2 0.92,0.01l0,0l0,0q0.52,0.23 0.55,0.69l0,0l0,0q-0.02,0.01 -0.02,0.05l0,0l0.04,0.02l-0.09,0.08l0,0q-0.1,0.18 -0.15,0.25l0,0l0,0q-0.05,0.06 -0.2,0.19l0,0l0,0q-0.96,1.02 -2.19,3.79l0,0l0,0q-0.31,0.69 -0.56,1.23l0,0l0,0q0.38,0.24 0.58,0.62l0,0l0,0q0.19,0.38 0,0.82l0,0l0,0q-1.17,0.93 -1.31,1.74l0,0l0,0q-0.07,0.5 -0.17,0.71l0,0l0,0q-0.11,0.21 -0.33,0.41l0,0l0,0q-0.76,0.56 -1.78,-0.28l0,0l0,0q-0.73,-0.73 -0.07,-1.82l0,0l0,0q0.17,-0.29 0.32,-0.62l0,0l0,0q0.23,-0.47 0.72,-1.41l0,0l0,0q-1.21,0.7 -2.21,-0.03l0,0l0,0q-0.72,-0.54 -0.51,-2.48l0,0l0,0q0.14,-1.28 0.15,-1.86zm10.94,1.01l-0.13,0.22l-0.67,1.71l0,0q-0.14,0.39 -0.25,0.81l0,0l0,0q-0.11,0.42 -0.24,0.74l0,0l0,0q-0.12,0.31 -0.38,0.5l0,0l0,0q-0.26,0.18 -0.58,0.27l0,0l0,0q-0.33,0.09 -0.67,0.08l0,0l0,0q-0.34,-0.02 -0.61,-0.13l0,0l0,0q-0.6,-0.28 -0.42,-0.92l0,0l0,0q0.65,-2.83 1.21,-4.54l0,0l0,0q0.57,-1.71 0.94,-2.69l0,0l0,0q0.37,-0.98 0.78,-2.07l0,0l0,0q0.04,-0.41 0.33,-0.73l0,0l0,0q0.3,-0.32 0.7,-0.53l0,0l0,0q0.4,-0.21 0.83,-0.3l0,0l0,0q0.43,-0.09 0.77,-0.02l0,0l0,0q0.34,0.07 0.5,0.31l0,0l0,0q0.16,0.23 0.02,0.68l0,0l0,0q-0.51,1.29 -0.72,1.82l0,0l0,0q-0.21,0.53 -0.37,0.95l0,0l-0.4,0.93l0,0q0.3,0.01 0.75,-0.09l0,0l0,0q0.81,-0.18 1.17,-0.12l0,0l0,0q0,-0.07 0.07,-0.24l0,0l0,0q0.39,-1.71 0.88,-3.14l0,0l0,0q0.35,-1.17 1.81,-1.23l0,0l0,0q0.57,0 0.87,0.28l0,0l0,0q0.32,0.3 0.08,0.8l0,0l0,0q-1.29,3.61 -1.82,5.7l0,0l0,0q-0.6,2.41 -0.79,3.25l0,0l0,0q-0.19,0.84 -0.33,0.99l0,0l0,0q-0.14,0.15 -0.28,0.22l0,0l0,0q-0.15,0.06 -0.29,0.12l0,0l0,0q-0.14,0.05 -0.23,0.28l0,0l-0.04,0l0,0q-0.11,0.25 -0.49,0.39l0,0l0,0q-0.38,0.14 -0.76,0.1l0,0l0,0q-0.39,-0.03 -0.65,-0.28l0,0l0,0q-0.25,-0.24 -0.13,-0.75l0,0l0,0q0.14,-0.79 0.46,-1.71l0,0l0,0q0.33,-0.92 0.51,-1.44l0,0l0,0q0.19,-0.51 0.32,-0.96l0,0l0,0q-0.11,0.05 -0.22,0.08l0,0l0,0q-0.1,0.03 -0.26,0.11l0,0l0,0q-0.15,0.07 -0.31,0.13l0,0l0,0q-0.16,0.06 -0.32,0.11l0,0l0,0q-0.39,0.16 -0.64,0.31l0,0zm1.46,-0.71l0,0l0,0q0.01,0 0.14,-0.05l0,0l0,0q-0.09,0.03 -0.14,0.05zm8.19,1.91l0,0l0,0q-0.27,0.13 -0.52,0.2l0,0l0,0q-0.25,0.07 -0.59,0.14l0,0l0,0q-0.88,0.18 -1.27,0.21l0,0l0,0q0.04,0.14 0.42,0.34l0,0l0,0q0.25,0.04 0.55,-0.08l0,0l0,0q0.3,-0.12 0.63,-0.22l0,0l0,0q0.33,-0.11 0.64,-0.12l0,0l0,0q0.32,-0.02 0.6,0.23l0,0l0,0q0.11,0.26 0.18,0.3l0,0l0,0q0.07,0.04 0.13,0.04l0,0l0,0q0.05,0 0.12,0.04l0,0l0,0q0.07,0.04 0.2,0.32l0,0l0,0q0.14,0.28 -0.07,0.54l0,0l0,0q-0.2,0.25 -0.62,0.43l0,0l0,0q-0.42,0.18 -0.98,0.29l0,0l0,0q-0.56,0.12 -1.12,0.16l0,0l0,0q-1.26,0.1 -1.92,-0.2l0,0l0,0q-0.95,-0.32 -1.23,-1.27l0,0l0,0q-0.36,-1.26 0.41,-2.94l0,0l0,0q0.35,-0.79 1.1,-1.68l0,0l0,0q0.66,-0.79 1.47,-1.14l0,0l0,0q0.94,-0.4 1.96,-0.37l0,0l0,0q1.1,0.02 1.52,0.95l0,0l0,0q0.21,0.49 0.08,1.37l0,0l0,0q-0.22,1.15 -0.59,1.62l0,0l0,0q-0.36,0.47 -1.1,0.84zm-0.82,-2.21l0,0l0,0q-0.74,-0.15 -1.16,0.84l0,0l0,0q-0.12,0.27 -0.19,0.56l0,0l0,0q0.47,0.06 1,-0.53l0,0l0,0q0.2,-0.24 0.3,-0.48l0,0l0,0q0.1,-0.25 0.05,-0.39zm9.09,-1.72l0,0l0.06,0.01l0,0q0.02,0 0.02,0.02l0,0l0,0q0.37,-0.14 0.61,0.21l0,0l0,0q0.15,0.24 0.23,0.73l0,0l0,0q0.03,0.67 -0.14,1.86l0,0l0,0q-0.32,2.41 -0.35,2.87l0,0l0,0q0.03,0.49 -0.6,0.67l0,0l0,0q-0.54,0.17 -1.09,-0.01l0,0l0,0q-0.57,-0.2 -0.48,-0.61l0,0l0,0q-0.11,0.21 -0.22,0.3l0,0l0,0q-0.11,0.1 -0.44,0.26l0,0l0,0q-0.33,0.16 -0.93,0.26l0,0l0,0q-0.6,0.11 -1.21,0.06l0,0l0,0q-0.6,-0.05 -1.1,-0.29l0,0l0,0q-0.49,-0.25 -0.66,-0.77l0,0l0,0q-0.32,-1.01 0.08,-2.56l0,0l0,0q0.28,-1.02 1.01,-1.81l0,0l0,0q0.84,-0.89 1.91,-1.48l0,0l0,0q0.79,-0.43 1.54,-0.52l0,0l0,0q0.25,-0.03 0.44,0.02l0,0l0,0q0.19,0.04 0.4,0.08l0,0l0,0q0.22,0.04 0.42,0.13l0,0l0,0q0.5,0.21 0.5,0.57zm-2.59,3.71l0,0l0,0q0.1,-0.2 0.16,-0.49l0,0l0,0q0.06,-0.29 0.18,-0.64l0,0l0,0q-1.14,0.46 -1.74,1.13l0,0l0,0q-0.66,0.74 0.08,1.02l0,0l0,0q0.65,0.17 0.94,-0.21l0,0l0,0q0.13,-0.17 0.23,-0.42l0,0l0,0q0.09,-0.25 0.23,-0.52l0,0l0,0q-0.04,0.07 -0.08,0.13zm6.78,-3.92l0,0l0,0q0.07,0.84 0.12,1.69l0,0l0,0q0.06,0.84 0.17,1.68l0,0l0,0q0.25,-0.51 0.47,-1.09l0,0l0,0q0.22,-0.57 0.47,-1.13l0,0l0,0q0.6,-1.32 1.33,-1.93l0,0l0,0q0.45,-0.49 1.34,-0.49l0,0l0,0q0.53,0 0.67,0.33l0,0l0,0q0.07,0.17 -0.04,0.45l0,0l0,0q0.69,0.49 0.3,1.13l0,0l0,0q-0.12,0.17 -0.23,0.31l0,0l0,0q-0.6,1.01 -1.1,1.86l0,0l0,0q-0.83,1.42 -1.49,2.43l0,0l0,0q-0.22,0.33 -0.62,0.74l0,0l0,0q-0.4,0.42 -0.88,0.71l0,0l0,0q-1.12,0.73 -1.77,0.27l0,0l0,0q-0.44,-0.06 -0.82,-0.28l0,0l0,0q-0.37,-0.23 -0.57,-0.59l0,0l0,0q-0.29,-0.77 0.14,-3.53l0,0l0,0q0.1,-0.61 0.13,-0.92l0,0l0,0q0.02,-0.31 0.07,-0.56l0,0l0,0q0.04,-0.25 0.07,-0.48l0,0l0,0q0.02,-0.22 0.05,-0.45l0,0l0,0q0.03,-0.23 0.13,-0.43l0,0l0,0q0.24,-0.45 0.87,-0.49l0,0l0.16,0l0,0q0.26,0.06 0.48,0.13l0,0l0,0q0.38,0.14 0.5,0.53l0,0l0,0q0.02,0.04 0.05,0.11zm4.54,1.93l0,0l0,0q0.01,-0.57 -0.09,-0.94l0,0l0,0q-0.1,-0.36 0,-0.6l0,0l0,0q0.11,-0.25 0.34,-0.35l0,0l0,0q0.23,-0.1 0.55,-0.06l0,0l0,0q0.31,0.03 0.62,0.19l0,0l0,0q0.74,0.33 1.04,0.95l0,0l0,0q0.07,0.31 -0.05,0.76l0,0l0,0q-0.12,0.46 -0.28,0.94l0,0l0,0q-0.15,0.48 -0.29,0.94l0,0l0,0q-0.14,0.45 -0.11,0.76l0,0l0,0q0.36,-0.22 0.63,-0.67l0,0l0,0q0.28,-0.45 0.51,-0.96l0,0l0,0q0.23,-0.51 0.43,-1.01l0,0l0,0q0.21,-0.51 0.39,-0.8l0,0l0,0q0.19,-0.3 0.31,-0.47l0,0l0,0q0.11,-0.18 0.22,-0.32l0,0l0,0q0.18,-0.23 0.48,-0.46l0,0l0,0q0.08,-0.07 0.51,0.02l0,0l0,0q0.42,0.09 0.63,0.13l0,0l0,0q0.2,0.03 0.27,-0.02l0,0l0.2,-0.14l0,0q0.39,-0.2 0.92,0.01l0,0l0,0q0.52,0.23 0.55,0.69l0,0l0,0q-0.02,0.01 -0.02,0.05l0,0l0.04,0.02l-0.09,0.08l0,0q-0.1,0.18 -0.15,0.25l0,0l0,0q-0.05,0.06 -0.2,0.19l0,0l0,0q-0.96,1.02 -2.19,3.79l0,0l0,0q-0.31,0.69 -0.56,1.23l0,0l0,0q0.38,0.24 0.58,0.62l0,0l0,0q0.19,0.38 0,0.82l0,0l0,0q-1.17,0.93 -1.31,1.74l0,0l0,0q-0.07,0.5 -0.17,0.71l0,0l0,0q-0.11,0.21 -0.33,0.41l0,0l0,0q-0.76,0.56 -1.78,-0.28l0,0l0,0q-0.73,-0.73 -0.07,-1.82l0,0l0,0q0.17,-0.29 0.32,-0.62l0,0l0,0q0.23,-0.47 0.72,-1.41l0,0l0,0q-1.21,0.7 -2.21,-0.03l0,0l0,0q-0.72,-0.54 -0.51,-2.48l0,0l0,0q0.14,-1.28 0.15,-1.86z"/>
  </g>
  <g fill="black" transform="matrix(1.56004 0 0 1.55183 -10.3078 -1.44507)" id="130e0697-64bf-4eea-b013-91d45193c0ab">
   <path id="svg_2" d="m21.24858,14.08599c-0.6,0 -0.9,0.1 -0.7,-0.8c0.1,-0.5 0.3,-1.1 0.6,-1.6c0.3,-0.6 1,-1.3 1.8,-1.1c0.7,0.2 1.3,0.9 2.1,0.6c0.4,-0.1 0.8,-0.6 1.1,-0.9c0.9,-1.3 0.3,-2.4 0.2,-3.8c-0.1,-0.6 0,-1.3 -0.6,-1.7c-0.9,-0.6 -1.3,0.4 -1.5,1.1c-0.2,0.5 -0.2,0.7 -0.6,1.1c-0.3,0.3 -0.9,0.5 -1.1,0.9c-0.5,0.6 -0.4,1.3 -1,1.8c-0.6,0.4 -1,0.8 -1.4,1.4c-0.6,0.9 -0.9,1.7 -1.2,2.8c-0.2,0.8 -0.3,0.7 -1.1,0.9c-0.7,0.2 -1.4,0.6 -2.1,1c-1.4,0.9 -2.5,2 -3.5,3.3c-1.4,1.7 -1.6,4.5 -1.6,6.7c0,3 2.3,5.7 5.2,6.6c3.5,1 7.9,-0.3 9.8,-3.6c1.5,-2.6 2.5,-6 1.7,-8.9c-0.7,-3.1 -3,-5.6 -6.1,-5.8zm3.4,-5.8c0.4,0.1 0.4,1.2 -0.1,1.3c-0.1,0 -0.3,-0.1 -0.4,-0.1c-0.7,-0.3 -0.2,-1.4 0.5,-1.2zm0.9,14.5c0,1.6 -0.6,3.8 -1.6,5c-0.9,1.2 -1.9,1.7 -3.2,2.2c-1.9,0.7 -4.5,0.7 -6.1,-0.7c-1.7,-1.4 -2.4,-3 -2.3,-5.2c0.1,-1.8 0.5,-3.6 1.7,-5c1.7,-2 4.1,-3.1 6.6,-3c1.8,0 3,0.4 4,2c0.4,0.7 0.7,1.5 0.9,2.3c0.2,0.9 0,1.5 0,2.4zm2.9,-13.1c-1.3,0 -1.4,1.5 0,1.5c1.5,0.1 1.6,-1.5 0,-1.5zm-7.2,-3.6c1.1,0 1.5,-1.6 0.2,-1.6c-1.4,-0.1 -2.2,1.6 -0.2,1.6zm6,-2c0.9,0.6 1.6,-0.9 1.2,-1.5c-0.7,-1.1 -2.2,0.8 -1.2,1.5zm-3.1,-0.4c1.5,0.5 1.1,-2.3 -0.2,-1.8c-0.7,0.2 -0.4,1.6 0.2,1.8zm5.4,3.4c-0.7,-0.5 -2.3,0.5 -1.4,1.2c0.7,0.6 2.3,-0.7 1.4,-1.2zm-10.4,1.9c1.1,0.2 2.8,-1.5 1.1,-1.5c-0.6,0.1 -2.5,1.3 -1.1,1.5zm9.1,-3c0.3,1.2 2,-0.1 1.6,-1c-0.3,-1 -1.8,0.2 -1.6,1z"/>
   <path id="svg_3" d="m20.14858,19.18599c-1,0 -2.2,0.5 -2.7,1.5c-0.3,0.6 0,1.4 -0.2,1.9c-0.1,0.3 -0.6,0.4 -0.8,0.7c-1,1.3 0.7,1.5 1,2.6c0.1,0.5 -0.1,1.2 0.3,1.6c0.5,0.5 1.1,0.1 1.3,-0.5c0.2,-0.5 -0.1,-1.4 0.1,-1.8c0.2,-0.4 0.7,-0.2 1.1,-0.4c0.4,-0.2 0.7,-0.7 0.6,-1.2c0,-0.3 -0.2,-0.7 -0.5,-0.9c-0.4,-0.2 -1.1,0.2 -1.3,0.1c-0.1,-0.1 -0.1,-0.8 -0.1,-0.9c0.1,-0.5 0.4,-0.7 1,-0.8c0.5,-0.1 1,0.2 1.3,-0.5c0.4,-0.9 -0.4,-1.4 -1.1,-1.4z"/>
  </g>
 </g>
</svg>