<svg data-v-423bf9ae="" xmlns="http://www.w3.org/2000/svg" viewBox="0 0 344 90" class="iconLeft"><!----><!----><!----><g data-v-423bf9ae="" id="e81c616f-3e6a-43fa-9b56-ce2a0fed3750" fill="black" transform="matrix(3.846938765527274,0,0,3.846938765527274,75.39476368635852,-5.619592773685085)"><path d="M6.29 9.39L6.29 9.39L6.29 9.39Q6.29 8.97 5.99 8.97L5.99 8.97L5.99 8.97Q5.88 8.97 5.73 9.03L5.73 9.03L5.73 9.03Q5.57 9.09 5.43 9.13L5.43 9.13L5.43 9.13Q4.91 9.41 4.63 9.74L4.63 9.74L4.63 9.74Q4.34 10.07 4.05 10.47L4.05 10.47L4.05 10.47Q3.75 10.88 3.54 11.34L3.54 11.34L3.54 11.34Q3.33 11.80 3.22 12.21L3.22 12.21L3.22 12.21Q2.81 13.71 3.53 14.22L3.53 14.22L3.53 14.22Q3.82 14.43 4.15 14.43L4.15 14.43L4.15 14.43Q4.48 14.42 4.68 14.29L4.68 14.29L4.68 14.29Q4.89 14.17 5.08 14.06L5.08 14.06L5.08 14.06Q5.28 13.94 5.54 13.89L5.54 13.89L5.54 13.89Q5.80 13.85 6.18 13.96L6.18 13.96L6.18 13.96Q6.57 14.08 6.59 14.28L6.59 14.28L6.59 14.28Q6.62 14.48 6.59 14.69L6.59 14.69L6.59 14.69Q6.57 14.90 6.59 15.06L6.59 15.06L6.59 15.06Q6.61 15.23 6.89 15.27L6.89 15.27L6.89 15.27Q7.15 15.61 6.55 16.09L6.55 16.09L6.55 16.09Q6.40 16.21 6.26 16.32L6.26 16.32L6.26 16.32Q5.05 17.09 3.70 17.18L3.70 17.18L3.70 17.18Q2.84 17.23 1.88 16.87L1.88 16.87L1.88 16.87Q0.43 16.32 0.25 14.42L0.25 14.42L0.25 14.42Q0.01 12.66 0.70 10.77L0.70 10.77L0.70 10.77Q1.27 9.17 2.44 7.81L2.44 7.81L2.44 7.81Q3.49 6.57 4.51 6.19L4.51 6.19L4.51 6.19Q5.73 5.56 7.14 5.70L7.14 5.70L7.14 5.70Q8.64 5.89 9.10 6.97L9.10 6.97L9.10 6.97Q9.56 8.05 8.95 9.56L8.95 9.56L8.95 9.56Q8.74 10.09 8.15 10.40L8.15 10.40L8.15 10.40Q7.64 10.68 7.06 10.68L7.06 10.68L7.06 10.68Q6.47 10.68 6.30 10.31L6.30 10.31L6.30 10.31Q6.13 9.94 6.29 9.39ZM14.43 10.36L14.43 10.36L14.49 10.37L14.49 10.37Q14.52 10.37 14.52 10.39L14.52 10.39L14.52 10.39Q14.88 10.25 15.12 10.60L15.12 10.60L15.12 10.60Q15.27 10.84 15.36 11.33L15.36 11.33L15.36 11.33Q15.39 12.00 15.22 13.19L15.22 13.19L15.22 13.19Q14.90 15.60 14.87 16.06L14.87 16.06L14.87 16.06Q14.90 16.55 14.27 16.73L14.27 16.73L14.27 16.73Q13.72 16.90 13.17 16.72L13.17 16.72L13.17 16.72Q12.60 16.52 12.70 16.11L12.70 16.11L12.70 16.11Q12.59 16.32 12.47 16.41L12.47 16.41L12.47 16.41Q12.36 16.51 12.03 16.67L12.03 16.67L12.03 16.67Q11.70 16.83 11.10 16.93L11.10 16.93L11.10 16.93Q10.50 17.04 9.90 16.99L9.90 16.99L9.90 16.99Q9.30 16.94 8.80 16.70L8.80 16.70L8.80 16.70Q8.30 16.45 8.13 15.93L8.13 15.93L8.13 15.93Q7.81 14.92 8.22 13.37L8.22 13.37L8.22 13.37Q8.50 12.35 9.23 11.56L9.23 11.56L9.23 11.56Q10.07 10.67 11.13 10.08L11.13 10.08L11.13 10.08Q11.93 9.65 12.67 9.56L12.67 9.56L12.67 9.56Q12.92 9.53 13.11 9.58L13.11 9.58L13.11 9.58Q13.30 9.62 13.52 9.66L13.52 9.66L13.52 9.66Q13.73 9.70 13.93 9.79L13.93 9.79L13.93 9.79Q14.43 10.00 14.43 10.36ZM11.84 14.07L11.84 14.07L11.84 14.07Q11.94 13.87 12.01 13.58L12.01 13.58L12.01 13.58Q12.07 13.29 12.18 12.94L12.18 12.94L12.18 12.94Q11.05 13.40 10.44 14.07L10.44 14.07L10.44 14.07Q9.79 14.81 10.53 15.09L10.53 15.09L10.53 15.09Q11.17 15.26 11.47 14.88L11.47 14.88L11.47 14.88Q11.59 14.71 11.69 14.46L11.69 14.46L11.69 14.46Q11.79 14.21 11.93 13.94L11.93 13.94L11.93 13.94Q11.89 14.01 11.84 14.07ZM18.63 10.57L18.90 10.64L18.90 10.64Q19.60 9.59 20.85 9.38L20.85 9.38L20.85 9.38Q21.25 9.31 21.85 9.28L21.85 9.28L21.85 9.28Q22.44 9.25 22.87 9.55L22.87 9.55L22.87 9.55Q23.30 9.84 23.51 10.30L23.51 10.30L23.51 10.30Q23.87 11.13 23.62 12.33L23.62 12.33L23.62 12.33Q23.48 12.99 23.28 13.78L23.28 13.78L23.28 13.78Q23.09 14.57 22.69 15.34L22.69 15.34L22.69 15.34Q22.30 16.11 21.67 16.79L21.67 16.79L21.67 16.79Q21.04 17.46 20.03 17.85L20.03 17.85L20.03 17.85Q19.43 18.09 18.98 18.02L18.98 18.02L18.98 18.02Q18.52 17.96 18.30 17.84L18.30 17.84L18.30 17.84Q18.07 17.71 17.99 17.47L17.99 17.47L17.99 17.47Q17.71 18.27 17.46 19.09L17.46 19.09L17.46 19.09Q17.22 19.91 16.81 20.65L16.81 20.65L16.81 20.65Q16.53 20.83 16.13 20.92L16.13 20.92L16.13 20.92Q15.72 21.01 15.33 20.88L15.33 20.88L15.33 20.88Q14.94 20.75 14.76 20.41L14.76 20.41L14.76 20.41Q14.59 20.06 14.59 19.66L14.59 19.66L14.59 19.66Q14.59 19.11 14.85 18.33L14.85 18.33L14.85 18.33Q15.25 17.16 15.49 16.53L15.49 16.53L15.49 16.53Q15.74 15.90 15.81 15.71L15.81 15.71L15.81 15.71Q15.88 15.53 15.95 15.32L15.95 15.32L15.95 15.32Q16.25 14.50 16.40 13.99L16.40 13.99L16.40 13.99Q16.55 13.48 16.67 13.10L16.67 13.10L16.67 13.09L16.67 13.09Q16.81 12.47 17.11 11.78L17.11 11.78L17.11 11.78Q17.42 11.09 17.53 10.93L17.53 10.93L17.53 10.93Q17.77 10.70 18.02 10.64L18.02 10.64L18.02 10.64Q18.27 10.58 18.59 10.57L18.59 10.57L18.63 10.57ZM19.96 12.98L19.96 12.98L19.96 12.98Q19.80 13.27 19.40 13.52L19.40 13.52L19.28 13.82L19.28 13.82Q19.14 14.18 19.01 14.56L19.01 14.56L19.01 14.56Q18.89 14.94 18.73 15.30L18.73 15.30L18.73 15.30Q18.87 15.44 18.94 15.57L18.94 15.57L18.94 15.57Q19.73 14.88 20.37 13.76L20.37 13.76L20.37 13.76Q20.62 13.30 20.70 12.84L20.70 12.84L20.70 12.84Q20.78 12.38 20.73 12.25L20.73 12.25L20.73 12.25Q20.69 12.12 20.60 12.12L20.60 12.12L20.60 12.12Q20.51 12.12 20.42 12.17L20.42 12.17L20.42 12.17Q20.33 12.22 20.28 12.27L20.28 12.27L20.28 12.27Q20.23 12.32 20.29 12.28L20.29 12.28L20.29 12.28Q20.13 12.46 20.06 12.59L20.06 12.59L20.06 12.59Q19.99 12.73 19.96 12.98ZM24.27 12.08L24.27 12.08L24.27 12.08Q24.28 11.51 24.18 11.14L24.18 11.14L24.18 11.14Q24.08 10.78 24.18 10.54L24.18 10.54L24.18 10.54Q24.29 10.29 24.52 10.19L24.52 10.19L24.52 10.19Q24.75 10.09 25.07 10.13L25.07 10.13L25.07 10.13Q25.38 10.16 25.69 10.32L25.69 10.32L25.69 10.32Q26.43 10.65 26.73 11.27L26.73 11.27L26.73 11.27Q26.80 11.58 26.68 12.03L26.68 12.03L26.68 12.03Q26.56 12.49 26.40 12.97L26.40 12.97L26.40 12.97Q26.25 13.45 26.11 13.91L26.11 13.91L26.11 13.91Q25.97 14.36 26.00 14.67L26.00 14.67L26.00 14.67Q26.36 14.45 26.63 14L26.63 14L26.63 14Q26.91 13.55 27.14 13.04L27.14 13.04L27.14 13.04Q27.37 12.53 27.57 12.03L27.57 12.03L27.57 12.03Q27.78 11.52 27.96 11.23L27.96 11.23L27.96 11.23Q28.15 10.93 28.27 10.76L28.27 10.76L28.27 10.76Q28.38 10.58 28.49 10.44L28.49 10.44L28.49 10.44Q28.67 10.21 28.97 9.98L28.97 9.98L28.97 9.98Q29.05 9.91 29.48 10.00L29.48 10.00L29.48 10.00Q29.90 10.09 30.11 10.13L30.11 10.13L30.11 10.13Q30.31 10.16 30.38 10.11L30.38 10.11L30.58 9.97L30.58 9.97Q30.97 9.77 31.50 9.98L31.50 9.98L31.50 9.98Q32.02 10.21 32.05 10.67L32.05 10.67L32.05 10.67Q32.03 10.68 32.03 10.72L32.03 10.72L32.07 10.74L31.98 10.82L31.98 10.82Q31.88 11.00 31.83 11.07L31.83 11.07L31.83 11.07Q31.78 11.13 31.63 11.26L31.63 11.26L31.63 11.26Q30.67 12.28 29.44 15.05L29.44 15.05L29.44 15.05Q29.13 15.74 28.88 16.28L28.88 16.28L28.88 16.28Q29.26 16.52 29.46 16.90L29.46 16.90L29.46 16.90Q29.65 17.28 29.46 17.72L29.46 17.72L29.46 17.72Q28.29 18.65 28.15 19.46L28.15 19.46L28.15 19.46Q28.08 19.96 27.98 20.17L27.98 20.17L27.98 20.17Q27.87 20.38 27.65 20.58L27.65 20.58L27.65 20.58Q26.89 21.14 25.87 20.30L25.87 20.30L25.87 20.30Q25.14 19.57 25.80 18.48L25.80 18.48L25.80 18.48Q25.97 18.19 26.12 17.86L26.12 17.86L26.12 17.86Q26.35 17.39 26.84 16.45L26.84 16.45L26.84 16.45Q25.63 17.15 24.63 16.42L24.63 16.42L24.63 16.42Q23.91 15.88 24.12 13.94L24.12 13.94L24.12 13.94Q24.26 12.66 24.27 12.08ZM35.21 13.09L35.08 13.31L34.41 15.02L34.41 15.02Q34.27 15.41 34.16 15.83L34.16 15.83L34.16 15.83Q34.05 16.25 33.92 16.57L33.92 16.57L33.92 16.57Q33.80 16.88 33.54 17.07L33.54 17.07L33.54 17.07Q33.28 17.25 32.96 17.34L32.96 17.34L32.96 17.34Q32.63 17.43 32.29 17.42L32.29 17.42L32.29 17.42Q31.95 17.40 31.68 17.29L31.68 17.29L31.68 17.29Q31.08 17.01 31.26 16.37L31.26 16.37L31.26 16.37Q31.91 13.54 32.47 11.83L32.47 11.83L32.47 11.83Q33.04 10.12 33.41 9.14L33.41 9.14L33.41 9.14Q33.78 8.16 34.19 7.07L34.19 7.07L34.19 7.07Q34.23 6.66 34.52 6.34L34.52 6.34L34.52 6.34Q34.82 6.02 35.22 5.81L35.22 5.81L35.22 5.81Q35.62 5.60 36.05 5.51L36.05 5.51L36.05 5.51Q36.48 5.42 36.82 5.49L36.82 5.49L36.82 5.49Q37.16 5.56 37.32 5.80L37.32 5.80L37.32 5.80Q37.48 6.03 37.34 6.48L37.34 6.48L37.34 6.48Q36.83 7.77 36.62 8.30L36.62 8.30L36.62 8.30Q36.41 8.83 36.25 9.25L36.25 9.25L35.85 10.18L35.85 10.18Q36.15 10.19 36.60 10.09L36.60 10.09L36.60 10.09Q37.41 9.91 37.77 9.97L37.77 9.97L37.77 9.97Q37.77 9.90 37.84 9.73L37.84 9.73L37.84 9.73Q38.23 8.02 38.72 6.59L38.72 6.59L38.72 6.59Q39.07 5.42 40.53 5.36L40.53 5.36L40.53 5.36Q41.10 5.36 41.40 5.64L41.40 5.64L41.40 5.64Q41.72 5.94 41.48 6.44L41.48 6.44L41.48 6.44Q40.19 10.05 39.66 12.14L39.66 12.14L39.66 12.14Q39.06 14.55 38.87 15.39L38.87 15.39L38.87 15.39Q38.68 16.23 38.54 16.38L38.54 16.38L38.54 16.38Q38.40 16.53 38.26 16.60L38.26 16.60L38.26 16.60Q38.11 16.66 37.97 16.72L37.97 16.72L37.97 16.72Q37.83 16.77 37.74 17.00L37.74 17.00L37.70 17.00L37.70 17.00Q37.59 17.25 37.21 17.39L37.21 17.39L37.21 17.39Q36.83 17.53 36.45 17.49L36.45 17.49L36.45 17.49Q36.06 17.46 35.80 17.21L35.80 17.21L35.80 17.21Q35.55 16.97 35.67 16.46L35.67 16.46L35.67 16.46Q35.81 15.67 36.13 14.75L36.13 14.75L36.13 14.75Q36.46 13.83 36.64 13.31L36.64 13.31L36.64 13.31Q36.83 12.80 36.96 12.35L36.96 12.35L36.96 12.35Q36.85 12.40 36.74 12.43L36.74 12.43L36.74 12.43Q36.64 12.46 36.48 12.54L36.48 12.54L36.48 12.54Q36.33 12.61 36.17 12.67L36.17 12.67L36.17 12.67Q36.01 12.73 35.85 12.78L35.85 12.78L35.85 12.78Q35.46 12.94 35.21 13.09L35.21 13.09ZM36.67 12.38L36.67 12.38L36.67 12.38Q36.68 12.38 36.81 12.33L36.81 12.33L36.81 12.33Q36.72 12.36 36.67 12.38ZM44.86 14.29L44.86 14.29L44.86 14.29Q44.59 14.42 44.34 14.49L44.34 14.49L44.34 14.49Q44.09 14.56 43.75 14.63L43.75 14.63L43.75 14.63Q42.87 14.81 42.48 14.84L42.48 14.84L42.48 14.84Q42.52 14.98 42.90 15.18L42.90 15.18L42.90 15.18Q43.15 15.22 43.45 15.10L43.45 15.10L43.45 15.10Q43.75 14.98 44.08 14.88L44.08 14.88L44.08 14.88Q44.41 14.77 44.72 14.76L44.72 14.76L44.72 14.76Q45.04 14.74 45.32 14.99L45.32 14.99L45.32 14.99Q45.43 15.25 45.50 15.29L45.50 15.29L45.50 15.29Q45.57 15.33 45.63 15.33L45.63 15.33L45.63 15.33Q45.68 15.33 45.75 15.37L45.75 15.37L45.75 15.37Q45.82 15.41 45.95 15.69L45.95 15.69L45.95 15.69Q46.09 15.97 45.88 16.23L45.88 16.23L45.88 16.23Q45.68 16.48 45.26 16.66L45.26 16.66L45.26 16.66Q44.84 16.84 44.28 16.95L44.28 16.95L44.28 16.95Q43.72 17.07 43.16 17.11L43.16 17.11L43.16 17.11Q41.90 17.21 41.24 16.91L41.24 16.91L41.24 16.91Q40.29 16.59 40.01 15.64L40.01 15.64L40.01 15.64Q39.65 14.38 40.42 12.70L40.42 12.70L40.42 12.70Q40.77 11.91 41.52 11.02L41.52 11.02L41.52 11.02Q42.18 10.23 42.99 9.88L42.99 9.88L42.99 9.88Q43.93 9.48 44.95 9.51L44.95 9.51L44.95 9.51Q46.05 9.53 46.47 10.46L46.47 10.46L46.47 10.46Q46.68 10.95 46.55 11.83L46.55 11.83L46.55 11.83Q46.33 12.98 45.96 13.45L45.96 13.45L45.96 13.45Q45.60 13.92 44.86 14.29ZM44.04 12.08L44.04 12.08L44.04 12.08Q43.30 11.93 42.88 12.92L42.88 12.92L42.88 12.92Q42.76 13.19 42.69 13.48L42.69 13.48L42.69 13.48Q43.16 13.54 43.69 12.95L43.69 12.95L43.69 12.95Q43.89 12.71 43.99 12.47L43.99 12.47L43.99 12.47Q44.09 12.22 44.04 12.08ZM53.13 10.36L53.13 10.36L53.19 10.37L53.19 10.37Q53.21 10.37 53.21 10.39L53.21 10.39L53.21 10.39Q53.58 10.25 53.82 10.60L53.82 10.60L53.82 10.60Q53.97 10.84 54.05 11.33L54.05 11.33L54.05 11.33Q54.08 12.00 53.91 13.19L53.91 13.19L53.91 13.19Q53.59 15.60 53.56 16.06L53.56 16.06L53.56 16.06Q53.59 16.55 52.96 16.73L52.96 16.73L52.96 16.73Q52.42 16.90 51.87 16.72L51.87 16.72L51.87 16.72Q51.30 16.52 51.39 16.11L51.39 16.11L51.39 16.11Q51.28 16.32 51.17 16.41L51.17 16.41L51.17 16.41Q51.06 16.51 50.73 16.67L50.73 16.67L50.73 16.67Q50.40 16.83 49.80 16.93L49.80 16.93L49.80 16.93Q49.20 17.04 48.59 16.99L48.59 16.99L48.59 16.99Q47.99 16.94 47.49 16.70L47.49 16.70L47.49 16.70Q47.00 16.45 46.83 15.93L46.83 15.93L46.83 15.93Q46.51 14.92 46.91 13.37L46.91 13.37L46.91 13.37Q47.19 12.35 47.92 11.56L47.92 11.56L47.92 11.56Q48.76 10.67 49.83 10.08L49.83 10.08L49.83 10.08Q50.62 9.65 51.37 9.56L51.37 9.56L51.37 9.56Q51.62 9.53 51.81 9.58L51.81 9.58L51.81 9.58Q52.00 9.62 52.21 9.66L52.21 9.66L52.21 9.66Q52.43 9.70 52.63 9.79L52.63 9.79L52.63 9.79Q53.13 10.00 53.13 10.36ZM50.54 14.07L50.54 14.07L50.54 14.07Q50.64 13.87 50.70 13.58L50.70 13.58L50.70 13.58Q50.76 13.29 50.88 12.94L50.88 12.94L50.88 12.94Q49.74 13.40 49.14 14.07L49.14 14.07L49.14 14.07Q48.48 14.81 49.22 15.09L49.22 15.09L49.22 15.09Q49.87 15.26 50.16 14.88L50.16 14.88L50.16 14.88Q50.29 14.71 50.39 14.46L50.39 14.46L50.39 14.46Q50.48 14.21 50.62 13.94L50.62 13.94L50.62 13.94Q50.58 14.01 50.54 14.07ZM57.32 10.15L57.32 10.15L57.32 10.15Q57.39 10.99 57.44 11.84L57.44 11.84L57.44 11.84Q57.50 12.68 57.61 13.52L57.61 13.52L57.61 13.52Q57.86 13.01 58.08 12.43L58.08 12.43L58.08 12.43Q58.30 11.86 58.55 11.30L58.55 11.30L58.55 11.30Q59.15 9.98 59.88 9.37L59.88 9.37L59.88 9.37Q60.33 8.88 61.22 8.88L61.22 8.88L61.22 8.88Q61.75 8.88 61.89 9.21L61.89 9.21L61.89 9.21Q61.96 9.38 61.85 9.66L61.85 9.66L61.85 9.66Q62.54 10.15 62.15 10.79L62.15 10.79L62.15 10.79Q62.03 10.96 61.92 11.10L61.92 11.10L61.92 11.10Q61.32 12.11 60.82 12.96L60.82 12.96L60.82 12.96Q59.99 14.38 59.33 15.39L59.33 15.39L59.33 15.39Q59.11 15.72 58.71 16.13L58.71 16.13L58.71 16.13Q58.31 16.55 57.83 16.84L57.83 16.84L57.83 16.84Q56.71 17.57 56.06 17.11L56.06 17.11L56.06 17.11Q55.62 17.05 55.24 16.83L55.24 16.83L55.24 16.83Q54.87 16.60 54.67 16.24L54.67 16.24L54.67 16.24Q54.38 15.47 54.81 12.71L54.81 12.71L54.81 12.71Q54.91 12.10 54.94 11.79L54.94 11.79L54.94 11.79Q54.96 11.48 55.01 11.23L55.01 11.23L55.01 11.23Q55.05 10.98 55.08 10.75L55.08 10.75L55.08 10.75Q55.10 10.53 55.13 10.30L55.13 10.30L55.13 10.30Q55.16 10.07 55.26 9.87L55.26 9.87L55.26 9.87Q55.50 9.42 56.13 9.38L56.13 9.38L56.29 9.38L56.29 9.38Q56.55 9.44 56.77 9.51L56.77 9.51L56.77 9.51Q57.15 9.65 57.27 10.04L57.27 10.04L57.27 10.04Q57.29 10.08 57.32 10.15ZM61.86 12.08L61.86 12.08L61.86 12.08Q61.87 11.51 61.77 11.14L61.77 11.14L61.77 11.14Q61.67 10.78 61.77 10.54L61.77 10.54L61.77 10.54Q61.88 10.29 62.11 10.19L62.11 10.19L62.11 10.19Q62.34 10.09 62.66 10.13L62.66 10.13L62.66 10.13Q62.97 10.16 63.28 10.32L63.28 10.32L63.28 10.32Q64.02 10.65 64.32 11.27L64.32 11.27L64.32 11.27Q64.39 11.58 64.27 12.03L64.27 12.03L64.27 12.03Q64.15 12.49 63.99 12.97L63.99 12.97L63.99 12.97Q63.84 13.45 63.70 13.91L63.70 13.91L63.70 13.91Q63.56 14.36 63.59 14.67L63.59 14.67L63.59 14.67Q63.95 14.45 64.22 14L64.22 14L64.22 14Q64.50 13.55 64.73 13.04L64.73 13.04L64.73 13.04Q64.96 12.53 65.16 12.03L65.16 12.03L65.16 12.03Q65.37 11.52 65.55 11.23L65.55 11.23L65.55 11.23Q65.74 10.93 65.86 10.76L65.86 10.76L65.86 10.76Q65.97 10.58 66.08 10.44L66.08 10.44L66.08 10.44Q66.26 10.21 66.56 9.98L66.56 9.98L66.56 9.98Q66.64 9.91 67.07 10.00L67.07 10.00L67.07 10.00Q67.49 10.09 67.70 10.13L67.70 10.13L67.70 10.13Q67.90 10.16 67.97 10.11L67.97 10.11L68.17 9.97L68.17 9.97Q68.56 9.77 69.09 9.98L69.09 9.98L69.09 9.98Q69.61 10.21 69.64 10.67L69.64 10.67L69.64 10.67Q69.62 10.68 69.62 10.72L69.62 10.72L69.66 10.74L69.57 10.82L69.57 10.82Q69.47 11.00 69.42 11.07L69.42 11.07L69.42 11.07Q69.37 11.13 69.22 11.26L69.22 11.26L69.22 11.26Q68.26 12.28 67.03 15.05L67.03 15.05L67.03 15.05Q66.72 15.74 66.47 16.28L66.47 16.28L66.47 16.28Q66.85 16.52 67.05 16.90L67.05 16.90L67.05 16.90Q67.24 17.28 67.05 17.72L67.05 17.72L67.05 17.72Q65.88 18.65 65.74 19.46L65.74 19.46L65.74 19.46Q65.67 19.96 65.57 20.17L65.57 20.17L65.57 20.17Q65.46 20.38 65.24 20.58L65.24 20.58L65.24 20.58Q64.48 21.14 63.46 20.30L63.46 20.30L63.46 20.30Q62.73 19.57 63.39 18.48L63.39 18.48L63.39 18.48Q63.56 18.19 63.71 17.86L63.71 17.86L63.71 17.86Q63.94 17.39 64.43 16.45L64.43 16.45L64.43 16.45Q63.22 17.15 62.22 16.42L62.22 16.42L62.22 16.42Q61.50 15.88 61.71 13.94L61.71 13.94L61.71 13.94Q61.85 12.66 61.86 12.08Z"></path></g><!----><g data-v-423bf9ae="" id="130e0697-64bf-4eea-b013-91d45193c0ab" transform="matrix(2.913629264036599,0,0,2.913629264036599,-18.30634733695615,-1.224579481935713)" stroke="none" fill="black"><path d="M17 12.9c-.6 0-.9.1-.7-.8.1-.5.3-1.1.6-1.6.3-.6 1-1.3 1.8-1.1.7.2 1.3.9 2.1.6.4-.1.8-.6 1.1-.9.9-1.3.3-2.4.2-3.8-.1-.6 0-1.3-.6-1.7-.9-.6-1.3.4-1.5 1.1-.2.5-.2.7-.6 1.1-.3.3-.9.5-1.1.9-.5.6-.4 1.3-1 1.8-.6.4-1 .8-1.4 1.4-.6.9-.9 1.7-1.2 2.8-.2.8-.3.7-1.1.9-.7.2-1.4.6-2.1 1-1.4.9-2.5 2-3.5 3.3-1.4 1.7-1.6 4.5-1.6 6.7 0 3 2.3 5.7 5.2 6.6 3.5 1 7.9-.3 9.8-3.6 1.5-2.6 2.5-6 1.7-8.9-.7-3.1-3-5.6-6.1-5.8zm3.4-5.8c.4.1.4 1.2-.1 1.3-.1 0-.3-.1-.4-.1-.7-.3-.2-1.4.5-1.2zm.9 14.5c0 1.6-.6 3.8-1.6 5-.9 1.2-1.9 1.7-3.2 2.2-1.9.7-4.5.7-6.1-.7-1.7-1.4-2.4-3-2.3-5.2.1-1.8.5-3.6 1.7-5 1.7-2 4.1-3.1 6.6-3 1.8 0 3 .4 4 2 .4.7.7 1.5.9 2.3.2.9 0 1.5 0 2.4zM24.2 8.5c-1.3 0-1.4 1.5 0 1.5 1.5.1 1.6-1.5 0-1.5zM17 4.9c1.1 0 1.5-1.6.2-1.6-1.4-.1-2.2 1.6-.2 1.6zM23 2.9c.9.6 1.6-.9 1.2-1.5-.7-1.1-2.2.8-1.2 1.5zM19.9 2.5C21.4 3 21 .2 19.7.7c-.7.2-.4 1.6.2 1.8zM25.3 5.9c-.7-.5-2.3.5-1.4 1.2.7.6 2.3-.7 1.4-1.2zM14.9 7.8C16 8 17.7 6.3 16 6.3c-.6.1-2.5 1.3-1.1 1.5zM24 4.8c.3 1.2 2-.1 1.6-1-.3-1-1.8.2-1.6 1z"></path><path d="M15.9 18c-1 0-2.2.5-2.7 1.5-.3.6 0 1.4-.2 1.9-.1.3-.6.4-.8.7-1 1.3.7 1.5 1 2.6.1.5-.1 1.2.3 1.6.5.5 1.1.1 1.3-.5.2-.5-.1-1.4.1-1.8.2-.4.7-.2 1.1-.4.4-.2.7-.7.6-1.2 0-.3-.2-.7-.5-.9-.4-.2-1.1.2-1.3.1-.1-.1-.1-.8-.1-.9.1-.5.4-.7 1-.8.5-.1 1 .2 1.3-.5.4-.9-.4-1.4-1.1-1.4z"></path></g><!----></svg>